<svg width="24" height="24" viewBox="0 0 24 24" fill="none" xmlns="http://www.w3.org/2000/svg">
  <path
    d="M10.7516 16.8594V18.8894C10.7516 20.6094 9.15158 21.9994 7.18158 21.9994C5.21158 21.9994 3.60156 20.6094 3.60156 18.8894V16.8594C3.60156 18.5794 5.20158 19.7994 7.18158 19.7994C9.15158 19.7994 10.7516 18.5694 10.7516 16.8594Z"
    stroke="white" stroke-width="1.5" stroke-linecap="round" stroke-linejoin="round" />
  <path
    d="M10.7501 14.1097C10.7501 14.6097 10.6101 15.0697 10.3701 15.4697C9.78006 16.4397 8.57004 17.0497 7.17004 17.0497C5.77004 17.0497 4.56003 16.4297 3.97003 15.4697C3.73003 15.0697 3.59009 14.6097 3.59009 14.1097C3.59009 13.2497 3.99007 12.4797 4.63007 11.9197C5.28007 11.3497 6.17003 11.0098 7.16003 11.0098C8.15003 11.0098 9.04006 11.3597 9.69006 11.9197C10.3501 12.4697 10.7501 13.2497 10.7501 14.1097Z"
    stroke="white" stroke-width="1.5" stroke-linecap="round" stroke-linejoin="round" />
  <path
    d="M10.7516 14.11V16.86C10.7516 18.58 9.15158 19.8 7.18158 19.8C5.21158 19.8 3.60156 18.57 3.60156 16.86V14.11C3.60156 12.39 5.20158 11 7.18158 11C8.17158 11 9.06161 11.35 9.71161 11.91C10.3516 12.47 10.7516 13.25 10.7516 14.11Z"
    stroke="white" stroke-width="1.5" stroke-linecap="round" stroke-linejoin="round" />
  <path
    d="M22 10.9692V13.0292C22 13.5792 21.56 14.0292 21 14.0492H19.0399C17.9599 14.0492 16.97 13.2592 16.88 12.1792C16.82 11.5492 17.0599 10.9592 17.4799 10.5492C17.8499 10.1692 18.36 9.94922 18.92 9.94922H21C21.56 9.96922 22 10.4192 22 10.9692Z"
    stroke="white" stroke-width="1.5" stroke-linecap="round" stroke-linejoin="round" />
  <path
    d="M2 10.5V8.5C2 5.78 3.64 3.88 6.19 3.56C6.45 3.52 6.72 3.5 7 3.5H16C16.26 3.5 16.51 3.50999 16.75 3.54999C19.33 3.84999 21 5.76 21 8.5V9.95001H18.92C18.36 9.95001 17.85 10.17 17.48 10.55C17.06 10.96 16.82 11.55 16.88 12.18C16.97 13.26 17.96 14.05 19.04 14.05H21V15.5C21 18.5 19 20.5 16 20.5H13.5"
    stroke="white" stroke-width="1.5" stroke-linecap="round" stroke-linejoin="round" />
</svg>