<svg width="21" height="20" viewBox="0 0 21 20" fill="none" xmlns="http://www.w3.org/2000/svg">
<path d="M4.52002 11.45C4.94002 11.04 5.18 10.45 5.12 9.82001C5.03 8.74001 4.04002 7.95001 2.96002 7.95001L1 7.95001L1 6.5C1 3.5 3 1.5 6 1.5L15 1.5C18 1.5 20 3.5 20 6.5L20 13.5C20 16.22 18.36 18.12 15.81 18.44C15.55 18.48 15.28 18.5 15 18.5L6 18.5C5.74 18.5 5.49 18.49 5.25 18.45C2.67 18.15 1 16.24 1 13.5L1 12.05L3.08002 12.05C3.64002 12.05 4.15002 11.83 4.52002 11.45Z" stroke="#FF2626" stroke-width="1.5" stroke-linecap="round" stroke-linejoin="round"/>
</svg>
