<svg width="121" height="120" viewBox="0 0 121 120" fill="none" xmlns="http://www.w3.org/2000/svg">
<g clip-path="url(#clip0_5233_3134)">
<path fill-rule="evenodd" clip-rule="evenodd" d="M60.4926 0C85.4313 0 107.325 16.0119 119.742 40.1485C120.753 42.0943 120.753 44.4411 119.742 46.4018C116.044 53.5611 111.514 60.0223 106.33 65.5477C106.033 65.8596 105.602 65.9785 105.186 65.8596C103.077 65.2358 100.864 64.8348 98.5913 64.6862C98.1012 64.6417 97.715 64.3298 97.5813 63.8693C97.4476 63.4088 97.611 62.9335 97.9972 62.6513C103.82 58.329 108.885 53.0264 112.925 46.9811C114.38 44.7976 114.38 41.7378 112.925 39.5544C101.592 22.6365 82.3418 11.4965 60.4926 11.4965C38.6582 11.4965 19.4083 22.6365 8.07519 39.5544C6.60472 41.7378 6.60472 44.7976 8.07519 46.9811C19.4083 63.899 38.6582 75.039 60.4926 75.039C64.1613 75.039 67.741 74.7271 71.2315 74.1181C71.7068 74.0438 72.1524 74.2518 72.3901 74.6677C72.6277 75.0835 72.598 75.5737 72.2861 75.945C69.9541 78.7672 68.0975 82.0052 66.8646 85.5403C66.7161 85.9562 66.3596 86.2384 65.8992 86.283C64.1168 86.4463 62.3195 86.5355 60.4926 86.5355C35.5687 86.5355 13.6749 70.5236 1.25752 46.4018C0.247494 44.4411 0.247494 42.0943 1.25752 40.1485C13.6749 16.0119 35.5687 0 60.4926 0Z" fill="white"/>
<path fill-rule="evenodd" clip-rule="evenodd" d="M60.4927 15.7446C75.7025 15.7446 88.0159 28.0729 88.0159 43.2678C88.0159 58.4628 75.7025 70.791 60.4927 70.791C45.2977 70.791 32.9695 58.4628 32.9695 43.2678C32.9695 28.0729 45.2977 15.7446 60.4927 15.7446ZM60.4927 24.5675C70.8306 24.5675 79.2079 32.9299 79.2079 43.2678C79.2079 53.6058 70.8306 61.9682 60.4927 61.9682C50.1696 61.9682 41.7924 53.6058 41.7924 43.2678C41.7924 32.9299 50.1696 24.5675 60.4927 24.5675Z" fill="white"/>
<path fill-rule="evenodd" clip-rule="evenodd" d="M60.4927 30.0332C67.8005 30.0332 73.727 35.9597 73.727 43.2675C73.727 50.5754 67.8005 56.5018 60.4927 56.5018C53.1997 56.5018 47.2732 50.5754 47.2732 43.2675C47.2732 41.8119 47.5108 40.4008 47.9416 39.0937C48.9665 40.4305 50.5855 41.3069 52.4124 41.3069C55.5019 41.3069 58.0121 38.7967 58.0121 35.7072C58.0121 33.7465 57.0021 32.0235 55.4871 31.0284C57.0318 30.3897 58.7251 30.0332 60.4927 30.0332ZM96.3931 71.7859C109.702 71.7859 120.5 82.5843 120.5 95.8928C120.5 109.201 109.702 120 96.3931 120C83.0846 120 72.2862 109.201 72.2862 95.8928C72.2862 82.5843 83.0846 71.7859 96.3931 71.7859ZM88.2832 92.2983H88.8625V87.5453C88.8625 83.3863 92.2639 79.9701 96.4377 79.9701C100.597 79.9701 104.013 83.3863 104.013 87.5453V92.2983H104.503C105.959 92.2983 107.147 93.4866 107.147 94.9422V109.172C107.147 110.627 105.959 111.816 104.503 111.816H88.2832C86.8276 111.816 85.6393 110.627 85.6393 109.172V94.9422C85.6393 93.4866 86.8276 92.2983 88.2832 92.2983ZM96.3931 98.9972C97.4923 98.9972 98.3983 99.8884 98.3983 100.988C98.3983 101.7 98.027 102.324 97.4626 102.681V106.127C97.4626 106.706 96.9873 107.167 96.4228 107.167C95.8436 107.167 95.3683 106.706 95.3683 106.127V102.711C94.789 102.369 94.3879 101.73 94.3879 100.988C94.3879 99.8884 95.294 98.9972 96.3931 98.9972ZM92.5758 92.2983H100.3V87.5453C100.3 86.4907 99.854 85.5252 99.1559 84.8271L99.1707 84.8123C98.4726 84.1142 97.5071 83.6834 96.4377 83.6834C95.3831 83.6834 94.4176 84.129 93.7195 84.8271C93.0214 85.5252 92.5758 86.4907 92.5758 87.5453V92.2983Z" fill="#FF2626"/>
</g>
<defs>
<clipPath id="clip0_5233_3134">
<rect width="120" height="120" fill="white" transform="translate(0.5)"/>
</clipPath>
</defs>
</svg>
