<svg width="48" height="48" viewBox="0 0 48 48" fill="none" xmlns="http://www.w3.org/2000/svg">
<path d="M31.5 18.9831C28.725 18.7081 25.9333 18.5664 23.15 18.5664C21.5 18.5664 19.85 18.6497 18.2 18.8164L16.5 18.9831" fill="#FF1717"/>
<path d="M31.5 18.9831C28.725 18.7081 25.9333 18.5664 23.15 18.5664C21.5 18.5664 19.85 18.6497 18.2 18.8164L16.5 18.9831" stroke="#FF1717" stroke-width="1.5" stroke-linecap="round" stroke-linejoin="round"/>
<path d="M21.0833 18.142L21.2666 17.0503C21.3999 16.2587 21.4999 15.667 22.9083 15.667H25.0916C26.4999 15.667 26.6083 16.292 26.7333 17.0587L26.9166 18.142" stroke="#FF1717" stroke-width="1.5" stroke-linecap="round" stroke-linejoin="round"/>
<path d="M29.7084 21.6162L29.1667 30.0079C29.0751 31.3162 29.0001 32.3329 26.6751 32.3329H21.3251C19.0001 32.3329 18.9251 31.3162 18.8334 30.0079L18.2917 21.6162" stroke="#FF1717" stroke-width="1.5" stroke-linecap="round" stroke-linejoin="round"/>
<path d="M22.6084 27.75H25.3834" stroke="#FF1717" stroke-width="1.5" stroke-linecap="round" stroke-linejoin="round"/>
<path d="M21.9167 24.417H26.0834" stroke="#FF1717" stroke-width="1.5" stroke-linecap="round" stroke-linejoin="round"/>
</svg>
